<svg xmlns="http://www.w3.org/2000/svg" xmlns:xlink="http://www.w3.org/1999/xlink" width="500" zoomAndPan="magnify" viewBox="0 0 375 374.999991" height="500" preserveAspectRatio="xMidYMid meet" version="1.0"><defs><clipPath id="ad588193ca"><path d="M 191 108 L 353.554688 108 L 353.554688 282 L 191 282 Z M 191 108 " clip-rule="nonzero"/></clipPath><clipPath id="36d5cd0260"><path d="M 42.304688 66 L 80 66 L 80 104 L 42.304688 104 Z M 42.304688 66 " clip-rule="nonzero"/></clipPath></defs><path fill="#f9ed32" d="M 205.710938 51.710938 C 206.378906 51.710938 207.042969 51.679688 207.707031 51.613281 C 208.371094 51.546875 209.03125 51.449219 209.683594 51.320312 C 210.339844 51.191406 210.984375 51.027344 211.625 50.835938 C 212.261719 50.640625 212.886719 50.417969 213.503906 50.164062 C 214.121094 49.90625 214.722656 49.625 215.3125 49.308594 C 215.898438 48.996094 216.472656 48.652344 217.027344 48.285156 C 217.582031 47.914062 218.117188 47.519531 218.628906 47.09375 C 219.148438 46.671875 219.640625 46.226562 220.113281 45.753906 C 220.582031 45.285156 221.03125 44.792969 221.453125 44.277344 C 221.878906 43.761719 222.273438 43.226562 222.644531 42.675781 C 223.015625 42.121094 223.359375 41.550781 223.671875 40.960938 C 223.988281 40.375 224.273438 39.773438 224.527344 39.160156 C 224.785156 38.542969 225.007812 37.917969 225.203125 37.28125 C 225.398438 36.640625 225.558594 35.996094 225.6875 35.34375 C 225.820312 34.691406 225.917969 34.03125 225.984375 33.371094 C 226.050781 32.707031 226.082031 32.042969 226.082031 31.375 C 226.082031 30.710938 226.050781 30.046875 225.984375 29.382812 C 225.921875 28.71875 225.824219 28.0625 225.695312 27.40625 C 225.566406 26.753906 225.402344 26.109375 225.210938 25.472656 C 225.015625 24.832031 224.792969 24.207031 224.539062 23.589844 C 224.285156 22.976562 224 22.375 223.6875 21.785156 C 223.371094 21.199219 223.03125 20.628906 222.660156 20.074219 C 222.289062 19.519531 221.894531 18.984375 221.472656 18.46875 C 221.046875 17.953125 220.601562 17.460938 220.128906 16.988281 C 219.660156 16.519531 219.167969 16.070312 218.652344 15.648438 C 218.136719 15.222656 217.601562 14.828125 217.046875 14.457031 C 216.492188 14.085938 215.921875 13.742188 215.335938 13.429688 C 214.746094 13.113281 214.144531 12.828125 213.527344 12.574219 C 212.914062 12.316406 212.285156 12.09375 211.648438 11.898438 C 211.011719 11.703125 210.363281 11.542969 209.710938 11.410156 C 209.054688 11.28125 208.398438 11.183594 207.734375 11.117188 C 207.070312 11.050781 206.40625 11.015625 205.738281 11.015625 C 205.070312 11.015625 204.40625 11.046875 203.742188 11.109375 C 203.078125 11.175781 202.417969 11.273438 201.765625 11.402344 C 201.109375 11.53125 200.464844 11.691406 199.828125 11.882812 C 199.1875 12.074219 198.558594 12.300781 197.945312 12.554688 C 197.328125 12.808594 196.726562 13.089844 196.136719 13.402344 C 195.546875 13.71875 194.976562 14.058594 194.421875 14.425781 C 193.867188 14.796875 193.332031 15.191406 192.8125 15.613281 C 192.296875 16.035156 191.804688 16.480469 191.332031 16.953125 C 190.859375 17.421875 190.410156 17.914062 189.988281 18.429688 C 189.5625 18.941406 189.164062 19.476562 188.792969 20.03125 C 188.421875 20.582031 188.078125 21.152344 187.765625 21.742188 C 187.449219 22.328125 187.164062 22.929688 186.90625 23.542969 C 186.648438 24.160156 186.425781 24.785156 186.230469 25.421875 C 186.035156 26.058594 185.871094 26.703125 185.742188 27.355469 C 185.609375 28.011719 185.511719 28.667969 185.445312 29.332031 C 185.378906 29.992188 185.34375 30.65625 185.34375 31.324219 C 185.34375 31.992188 185.375 32.65625 185.441406 33.320312 C 185.503906 33.984375 185.601562 34.640625 185.734375 35.296875 C 185.863281 35.949219 186.023438 36.597656 186.21875 37.234375 C 186.410156 37.875 186.636719 38.5 186.890625 39.117188 C 187.148438 39.734375 187.429688 40.335938 187.746094 40.921875 C 188.058594 41.511719 188.402344 42.082031 188.773438 42.636719 C 189.144531 43.191406 189.539062 43.726562 189.964844 44.242188 C 190.386719 44.757812 190.835938 45.253906 191.304688 45.726562 C 191.777344 46.199219 192.269531 46.644531 192.785156 47.070312 C 193.300781 47.492188 193.835938 47.890625 194.390625 48.261719 C 194.945312 48.632812 195.519531 48.976562 196.105469 49.289062 C 196.695312 49.605469 197.296875 49.890625 197.914062 50.148438 C 198.53125 50.402344 199.15625 50.628906 199.796875 50.824219 C 200.433594 51.019531 201.082031 51.179688 201.734375 51.3125 C 202.390625 51.445312 203.050781 51.542969 203.714844 51.609375 C 204.378906 51.675781 205.042969 51.710938 205.710938 51.710938 Z M 205.710938 51.710938 " fill-opacity="0.7765" fill-rule="evenodd"/><path fill="#662d91" d="M 304.390625 67.398438 C 307.144531 70.589844 309.671875 73.949219 311.96875 77.484375 C 314.265625 81.015625 316.316406 84.6875 318.117188 88.496094 C 319.917969 92.308594 321.453125 96.21875 322.722656 100.238281 C 323.992188 104.253906 324.984375 108.339844 325.703125 112.492188 C 329.832031 136.613281 323.53125 158.941406 327.949219 173.953125 C 328.984375 177.316406 330.367188 180.53125 332.105469 183.597656 C 331.070312 184.199219 330.023438 184.769531 328.957031 185.308594 C 327.894531 185.847656 326.816406 186.355469 325.722656 186.835938 C 324.625 187.3125 323.519531 187.757812 322.402344 188.175781 C 321.28125 188.589844 320.148438 188.972656 319.007812 189.320312 C 317.867188 189.671875 316.714844 189.988281 315.558594 190.273438 C 314.398438 190.558594 313.230469 190.808594 312.054688 191.023438 C 310.882812 191.242188 309.703125 191.425781 308.519531 191.574219 C 307.332031 191.726562 306.144531 191.839844 304.953125 191.921875 C 303.761719 192.003906 302.570312 192.050781 301.375 192.0625 C 300.183594 192.078125 298.988281 192.054688 297.796875 192 C 296.601562 191.945312 295.414062 191.855469 294.226562 191.734375 C 293.035156 191.609375 291.855469 191.453125 290.675781 191.261719 C 289.496094 191.070312 288.324219 190.847656 287.160156 190.589844 C 285.992188 190.328125 284.835938 190.039062 283.6875 189.714844 C 282.535156 189.390625 281.398438 189.03125 280.269531 188.640625 C 279.140625 188.253906 278.023438 187.832031 276.921875 187.378906 C 275.816406 186.921875 274.726562 186.4375 273.648438 185.921875 C 272.574219 185.40625 271.511719 184.859375 270.46875 184.28125 C 269.421875 183.707031 268.394531 183.097656 267.382812 182.464844 C 266.375 181.828125 265.382812 181.164062 264.410156 180.46875 C 263.4375 179.777344 262.488281 179.058594 261.554688 178.308594 C 260.625 177.5625 259.714844 176.789062 258.832031 175.992188 C 257.945312 175.191406 257.082031 174.367188 256.242188 173.519531 C 255.402344 172.671875 254.589844 171.796875 253.800781 170.902344 C 253.011719 170.007812 252.25 169.089844 251.511719 168.152344 C 250.777344 167.210938 250.066406 166.253906 249.386719 165.273438 C 248.703125 164.292969 248.050781 163.296875 247.429688 162.277344 C 246.804688 161.261719 246.210938 160.226562 245.644531 159.175781 C 245.082031 158.125 244.546875 157.058594 244.042969 155.976562 C 243.539062 154.894531 243.066406 153.800781 242.628906 152.691406 C 242.1875 151.582031 241.777344 150.464844 241.402344 149.332031 C 241.027344 148.199219 240.683594 147.058594 240.371094 145.90625 C 240.0625 144.753906 239.785156 143.59375 239.542969 142.425781 C 239.296875 141.257812 239.085938 140.085938 238.910156 138.90625 C 238.734375 137.726562 238.589844 136.542969 238.484375 135.355469 C 238.375 134.167969 238.300781 132.976562 238.257812 131.785156 C 238.21875 130.59375 238.214844 129.402344 238.242188 128.207031 C 238.269531 127.015625 238.332031 125.824219 238.429688 124.636719 C 238.523438 123.445312 238.65625 122.261719 238.820312 121.082031 C 238.984375 119.898438 239.183594 118.722656 239.414062 117.554688 C 239.648438 116.382812 239.914062 115.222656 240.210938 114.066406 C 240.511719 112.910156 240.84375 111.765625 241.207031 110.628906 C 241.570312 109.496094 241.96875 108.371094 242.398438 107.257812 C 242.828125 106.144531 243.289062 105.042969 243.78125 103.957031 C 244.273438 102.871094 244.796875 101.800781 245.347656 100.742188 C 245.902344 99.6875 246.488281 98.644531 247.101562 97.621094 C 247.714844 96.601562 248.355469 95.59375 249.027344 94.609375 C 249.699219 93.621094 250.398438 92.65625 251.125 91.710938 C 251.851562 90.761719 252.605469 89.839844 253.386719 88.933594 C 254.164062 88.03125 254.96875 87.152344 255.800781 86.292969 C 256.632812 85.4375 257.484375 84.605469 258.363281 83.796875 C 259.242188 82.988281 260.144531 82.207031 261.066406 81.449219 C 261.988281 80.691406 262.933594 79.964844 263.898438 79.261719 C 264.863281 78.558594 265.847656 77.882812 266.851562 77.238281 C 267.855469 76.59375 268.875 75.976562 269.914062 75.386719 C 270.953125 74.800781 272.011719 74.242188 273.082031 73.714844 C 274.152344 73.1875 275.238281 72.691406 276.335938 72.226562 C 277.4375 71.761719 278.550781 71.332031 279.675781 70.929688 C 280.796875 70.527344 281.933594 70.160156 283.078125 69.824219 C 284.226562 69.488281 285.378906 69.183594 286.542969 68.914062 C 287.707031 68.644531 288.875 68.40625 290.050781 68.203125 C 291.230469 68 292.410156 67.832031 293.597656 67.695312 C 294.785156 67.5625 295.972656 67.460938 297.164062 67.394531 C 298.355469 67.324219 299.550781 67.292969 300.746094 67.292969 C 301.921875 67.292969 303.160156 67.332031 304.390625 67.398438 Z M 304.390625 67.398438 " fill-opacity="0.7765" fill-rule="evenodd"/><g clip-path="url(#ad588193ca)"><path fill="#92278f" d="M 326.917969 123.101562 C 328.222656 143.085938 324.183594 161.175781 327.949219 174.003906 C 334.390625 195.917969 362.941406 215.769531 349.601562 227.046875 C 345.378906 230.425781 338.113281 230.648438 333.855469 233.964844 C 327.074219 239.25 331.710938 244.964844 332.3125 249.089844 C 332.601562 251.046875 330.824219 254.195312 324.957031 258.019531 C 329.386719 261.28125 328.980469 264.046875 327.398438 266.59375 C 325.242188 268.070312 323.019531 269.449219 320.734375 270.726562 C 318.453125 272.003906 316.117188 273.175781 313.726562 274.242188 C 311.335938 275.308594 308.902344 276.265625 306.425781 277.113281 C 303.949219 277.960938 301.441406 278.695312 298.898438 279.316406 C 296.355469 279.9375 293.789062 280.441406 291.203125 280.828125 C 288.613281 281.21875 286.011719 281.488281 283.398438 281.640625 C 280.785156 281.796875 278.171875 281.832031 275.554688 281.75 C 272.941406 281.667969 270.332031 281.46875 267.734375 281.148438 C 265.136719 280.832031 262.558594 280.398438 260 279.847656 C 257.441406 279.296875 254.914062 278.632812 252.414062 277.851562 C 249.914062 277.074219 247.457031 276.183594 245.039062 275.183594 C 242.621094 274.183594 240.253906 273.074219 237.933594 271.859375 C 235.617188 270.644531 233.359375 269.328125 231.160156 267.910156 C 228.960938 266.488281 226.832031 264.976562 224.769531 263.363281 C 222.707031 261.753906 220.722656 260.050781 218.816406 258.261719 C 216.910156 256.472656 215.085938 254.597656 213.347656 252.644531 C 211.609375 250.6875 209.964844 248.660156 208.410156 246.554688 C 206.855469 244.453125 205.398438 242.28125 204.042969 240.046875 C 202.683594 237.8125 201.429688 235.519531 200.277344 233.171875 C 199.128906 230.824219 198.085938 228.429688 197.152344 225.984375 C 196.21875 223.542969 195.398438 221.0625 194.6875 218.546875 C 193.980469 216.03125 193.382812 213.488281 192.90625 210.917969 C 192.425781 208.347656 192.0625 205.761719 191.820312 203.15625 C 191.574219 200.554688 191.449219 197.945312 191.4375 195.332031 C 191.429688 192.714844 191.539062 190.105469 191.765625 187.5 C 191.992188 184.898438 192.339844 182.308594 192.800781 179.734375 C 193.261719 177.160156 193.839844 174.613281 194.53125 172.09375 C 195.222656 169.570312 196.027344 167.085938 196.945312 164.636719 C 197.863281 162.1875 198.890625 159.785156 200.023438 157.429688 C 201.160156 155.074219 202.398438 152.773438 203.738281 150.53125 C 205.082031 148.285156 206.523438 146.105469 208.0625 143.992188 C 209.605469 141.878906 211.238281 139.835938 212.960938 137.871094 C 214.6875 135.90625 216.496094 134.019531 218.390625 132.214844 C 220.289062 130.414062 222.261719 128.699219 224.3125 127.074219 C 226.363281 125.449219 228.480469 123.921875 230.671875 122.488281 C 232.859375 121.054688 235.109375 119.722656 237.417969 118.492188 C 239.726562 117.261719 242.085938 116.136719 244.5 115.121094 C 246.910156 114.101562 249.363281 113.195312 251.855469 112.398438 C 254.347656 111.605469 256.875 110.921875 259.429688 110.355469 C 261.984375 109.785156 264.558594 109.335938 267.15625 109 C 269.75 108.664062 272.355469 108.449219 274.972656 108.347656 C 277.585938 108.246094 280.203125 108.265625 282.816406 108.402344 C 285.429688 108.539062 288.03125 108.792969 290.625 109.164062 C 293.214844 109.535156 295.78125 110.023438 298.328125 110.625 C 300.875 111.226562 303.390625 111.945312 305.875 112.773438 C 308.355469 113.605469 310.792969 114.546875 313.191406 115.597656 C 315.589844 116.648438 317.933594 117.804688 320.226562 119.066406 C 322.515625 120.328125 324.746094 121.691406 326.917969 123.15625 Z M 326.917969 123.101562 " fill-opacity="0.7765" fill-rule="evenodd"/></g><path fill="#007fc6" d="M 308.324219 314.804688 C 275.332031 328.222656 231.164062 283.222656 225.21875 375 C 203.769531 360.929688 181.039062 349.375 157.027344 340.335938 C 156.039062 338.882812 155.09375 337.398438 154.199219 335.886719 C 153.300781 334.375 152.453125 332.835938 151.652344 331.269531 C 150.851562 329.707031 150.101562 328.117188 149.402344 326.503906 C 148.703125 324.894531 148.050781 323.261719 147.453125 321.609375 C 146.855469 319.957031 146.308594 318.285156 145.816406 316.597656 C 145.320312 314.914062 144.878906 313.210938 144.492188 311.496094 C 144.105469 309.785156 143.773438 308.058594 143.492188 306.324219 C 143.214844 304.589844 142.988281 302.847656 142.816406 301.097656 C 142.648438 299.347656 142.53125 297.597656 142.472656 295.839844 C 142.410156 294.082031 142.40625 292.328125 142.453125 290.570312 C 142.503906 288.8125 142.609375 287.058594 142.765625 285.308594 C 142.925781 283.558594 143.140625 281.816406 143.40625 280.078125 C 143.675781 278.34375 144 276.617188 144.375 274.898438 C 144.75 273.183594 145.179688 271.480469 145.664062 269.789062 C 146.148438 268.101562 146.683594 266.425781 147.269531 264.769531 C 147.859375 263.113281 148.496094 261.476562 149.1875 259.859375 C 149.878906 258.246094 150.617188 256.652344 151.40625 255.082031 C 152.199219 253.511719 153.035156 251.964844 153.921875 250.449219 C 154.808594 248.929688 155.742188 247.441406 156.722656 245.980469 C 157.703125 244.523438 158.726562 243.09375 159.796875 241.699219 C 160.863281 240.304688 161.976562 238.941406 163.132812 237.617188 C 164.285156 236.289062 165.480469 235.003906 166.714844 233.75 C 167.949219 232.5 169.222656 231.289062 170.535156 230.117188 C 171.847656 228.945312 173.191406 227.8125 174.574219 226.726562 C 175.957031 225.636719 177.371094 224.59375 178.816406 223.59375 C 180.265625 222.59375 181.742188 221.640625 183.25 220.734375 C 184.753906 219.828125 186.289062 218.96875 187.847656 218.15625 C 189.410156 217.34375 190.996094 216.582031 192.601562 215.871094 C 194.210938 215.160156 195.839844 214.496094 197.488281 213.886719 C 199.140625 213.277344 200.804688 212.71875 202.492188 212.210938 C 204.175781 211.703125 205.875 211.25 207.585938 210.851562 C 209.300781 210.449219 211.023438 210.101562 212.757812 209.808594 C 214.496094 209.515625 216.238281 209.277344 217.984375 209.09375 C 219.734375 208.910156 221.488281 208.78125 223.246094 208.707031 C 225.003906 208.632812 226.761719 208.613281 228.523438 208.648438 C 230.28125 208.683594 232.039062 208.777344 233.792969 208.921875 C 235.542969 209.066406 237.292969 209.265625 239.03125 209.519531 C 240.773438 209.773438 242.503906 210.082031 244.226562 210.445312 C 245.949219 210.808594 247.65625 211.222656 249.351562 211.691406 C 251.046875 212.164062 252.726562 212.683594 254.390625 213.257812 C 256.050781 213.832031 257.695312 214.457031 259.320312 215.132812 C 260.941406 215.8125 262.542969 216.539062 264.121094 217.316406 C 265.699219 218.089844 267.25 218.917969 268.777344 219.789062 C 270.304688 220.664062 271.800781 221.585938 273.269531 222.550781 C 274.738281 223.519531 276.175781 224.53125 277.582031 225.589844 C 278.988281 226.644531 280.359375 227.746094 281.695312 228.886719 C 283.03125 230.03125 284.332031 231.214844 285.59375 232.4375 C 286.855469 233.664062 288.082031 234.925781 289.261719 236.226562 C 290.445312 237.523438 291.589844 238.859375 292.6875 240.234375 C 293.789062 241.605469 294.84375 243.007812 295.855469 244.445312 C 296.867188 245.882812 297.835938 247.351562 298.753906 248.851562 C 299.675781 250.347656 300.546875 251.875 301.371094 253.425781 C 302.195312 254.976562 302.96875 256.554688 303.695312 258.15625 C 304.421875 259.757812 305.097656 261.378906 305.722656 263.019531 C 306.347656 264.664062 306.917969 266.324219 307.4375 268.003906 C 307.957031 269.683594 308.425781 271.375 308.839844 273.085938 C 309.253906 274.792969 309.613281 276.511719 309.921875 278.242188 C 310.226562 279.972656 310.480469 281.710938 310.679688 283.457031 C 310.875 285.203125 311.019531 286.953125 311.105469 288.707031 C 311.195312 290.464844 311.226562 292.21875 311.207031 293.976562 C 311.183594 295.734375 311.109375 297.488281 310.976562 299.242188 C 310.84375 300.996094 310.660156 302.742188 310.417969 304.480469 C 310.175781 306.222656 309.882812 307.953125 309.53125 309.675781 C 309.183594 311.398438 308.78125 313.109375 308.324219 314.804688 Z M 308.324219 314.804688 " fill-opacity="0.7765" fill-rule="evenodd"/><path fill="#01a6e6" d="M 259.886719 315.277344 C 242.457031 316.007812 228.394531 326.03125 225.21875 375 C 203.890625 361.011719 181.292969 349.503906 157.433594 340.476562 C 157.46875 338.992188 157.5625 337.511719 157.71875 336.03125 C 157.875 334.554688 158.09375 333.085938 158.371094 331.625 C 158.644531 330.167969 158.980469 328.71875 159.375 327.285156 C 159.773438 325.855469 160.222656 324.441406 160.734375 323.042969 C 161.246094 321.648438 161.8125 320.273438 162.433594 318.925781 C 163.058594 317.574219 163.734375 316.253906 164.464844 314.960938 C 165.195312 313.664062 165.976562 312.402344 166.8125 311.171875 C 167.644531 309.941406 168.527344 308.746094 169.460938 307.585938 C 170.390625 306.429688 171.367188 305.308594 172.390625 304.230469 C 173.414062 303.152344 174.480469 302.117188 175.585938 301.125 C 176.695312 300.132812 177.839844 299.1875 179.023438 298.289062 C 180.210938 297.390625 181.429688 296.539062 182.683594 295.742188 C 183.9375 294.941406 185.222656 294.195312 186.539062 293.5 C 187.855469 292.804688 189.195312 292.167969 190.5625 291.582031 C 191.929688 290.996094 193.320312 290.46875 194.730469 289.996094 C 196.140625 289.523438 197.570312 289.109375 199.011719 288.753906 C 200.457031 288.398438 201.914062 288.105469 203.382812 287.867188 C 204.851562 287.628906 206.328125 287.453125 207.8125 287.339844 C 209.292969 287.222656 210.78125 287.167969 212.269531 287.171875 C 213.753906 287.175781 215.242188 287.242188 216.722656 287.367188 C 218.207031 287.492188 219.679688 287.679688 221.148438 287.925781 C 222.613281 288.171875 224.070312 288.476562 225.511719 288.84375 C 226.953125 289.207031 228.378906 289.628906 229.785156 290.113281 C 231.195312 290.59375 232.578125 291.128906 233.941406 291.726562 C 235.308594 292.320312 236.644531 292.96875 237.953125 293.671875 C 239.265625 294.375 240.546875 295.128906 241.792969 295.9375 C 243.042969 296.746094 244.257812 297.601562 245.4375 298.507812 C 246.613281 299.414062 247.753906 300.367188 248.855469 301.367188 C 249.957031 302.367188 251.015625 303.410156 252.03125 304.496094 C 253.046875 305.582031 254.015625 306.707031 254.941406 307.871094 C 255.863281 309.035156 256.738281 310.234375 257.5625 311.472656 C 258.390625 312.707031 259.164062 313.976562 259.886719 315.277344 Z M 259.886719 315.277344 " fill-opacity="0.7765" fill-rule="evenodd"/><path fill="#2063b2" d="M 339.605469 231.15625 C 337.535156 231.757812 335.617188 232.675781 333.855469 233.910156 C 327.074219 239.199219 331.710938 244.914062 332.3125 249.039062 C 332.601562 250.996094 330.824219 254.140625 324.957031 257.964844 C 331.738281 262.964844 327.175781 266.789062 324.445312 270.46875 C 311.757812 279.605469 329.410156 299.40625 308.480469 314.753906 C 287.351562 323.445312 261.664062 308.109375 244.3125 319.882812 C 244.035156 318.300781 243.808594 316.710938 243.632812 315.113281 C 243.457031 313.515625 243.332031 311.914062 243.253906 310.308594 C 243.175781 308.703125 243.148438 307.097656 243.171875 305.488281 C 243.195312 303.882812 243.269531 302.277344 243.390625 300.675781 C 243.511719 299.074219 243.683594 297.476562 243.90625 295.882812 C 244.128906 294.292969 244.398438 292.707031 244.71875 291.132812 C 245.039062 289.558594 245.410156 287.996094 245.824219 286.441406 C 246.242188 284.890625 246.707031 283.351562 247.21875 281.832031 C 247.734375 280.308594 248.292969 278.800781 248.898438 277.3125 C 249.503906 275.824219 250.15625 274.355469 250.851562 272.90625 C 251.550781 271.457031 252.292969 270.03125 253.078125 268.628906 C 253.863281 267.226562 254.691406 265.851562 255.5625 264.5 C 256.433594 263.148438 257.347656 261.828125 258.300781 260.53125 C 259.253906 259.238281 260.246094 257.972656 261.28125 256.742188 C 262.3125 255.507812 263.378906 254.308594 264.488281 253.140625 C 265.59375 251.976562 266.734375 250.84375 267.910156 249.746094 C 269.089844 248.652344 270.296875 247.59375 271.539062 246.574219 C 272.785156 245.550781 274.054688 244.570312 275.359375 243.628906 C 276.664062 242.6875 277.996094 241.785156 279.355469 240.925781 C 280.714844 240.066406 282.097656 239.25 283.507812 238.476562 C 284.917969 237.699219 286.351562 236.972656 287.804688 236.285156 C 289.261719 235.601562 290.738281 234.960938 292.230469 234.367188 C 293.726562 233.773438 295.238281 233.226562 296.769531 232.726562 C 298.296875 232.226562 299.839844 231.777344 301.398438 231.371094 C 302.953125 230.96875 304.523438 230.613281 306.101562 230.304688 C 307.683594 229.996094 309.269531 229.738281 310.863281 229.53125 C 312.460938 229.320312 314.058594 229.164062 315.664062 229.050781 C 317.269531 228.941406 318.878906 228.882812 320.484375 228.871094 C 322.09375 228.863281 323.703125 228.902344 325.308594 228.992188 C 326.914062 229.082031 328.515625 229.21875 330.113281 229.410156 C 331.710938 229.597656 333.304688 229.835938 334.886719 230.125 C 336.46875 230.410156 338.042969 230.746094 339.605469 231.132812 Z M 339.605469 231.15625 " fill-opacity="0.7765" fill-rule="evenodd"/><path fill="#12bcbc" d="M 94.242188 232.136719 C 95.230469 232.136719 96.21875 232.089844 97.199219 231.992188 C 98.183594 231.894531 99.160156 231.753906 100.128906 231.558594 C 101.097656 231.367188 102.058594 231.128906 103.003906 230.84375 C 103.949219 230.554688 104.878906 230.222656 105.792969 229.847656 C 106.703125 229.46875 107.597656 229.046875 108.46875 228.582031 C 109.339844 228.117188 110.1875 227.613281 111.007812 227.0625 C 111.832031 226.515625 112.625 225.929688 113.386719 225.300781 C 114.152344 224.675781 114.882812 224.015625 115.582031 223.316406 C 116.28125 222.617188 116.945312 221.886719 117.574219 221.125 C 118.199219 220.363281 118.789062 219.570312 119.335938 218.75 C 119.886719 217.929688 120.394531 217.082031 120.859375 216.210938 C 121.328125 215.34375 121.75 214.449219 122.128906 213.539062 C 122.503906 212.628906 122.839844 211.699219 123.125 210.753906 C 123.414062 209.808594 123.652344 208.851562 123.84375 207.886719 C 124.039062 206.917969 124.183594 205.941406 124.28125 204.960938 C 124.378906 203.976562 124.425781 202.992188 124.425781 202.003906 C 124.425781 201.015625 124.378906 200.03125 124.28125 199.050781 C 124.183594 198.066406 124.039062 197.09375 123.847656 196.125 C 123.65625 195.15625 123.414062 194.199219 123.128906 193.253906 C 122.839844 192.308594 122.507812 191.382812 122.128906 190.46875 C 121.753906 189.558594 121.332031 188.667969 120.863281 187.796875 C 120.398438 186.925781 119.890625 186.078125 119.34375 185.257812 C 118.792969 184.4375 118.207031 183.644531 117.578125 182.882812 C 116.953125 182.121094 116.289062 181.390625 115.589844 180.691406 C 114.890625 179.992188 114.160156 179.332031 113.394531 178.703125 C 112.632812 178.078125 111.839844 177.492188 111.015625 176.941406 C 110.195312 176.394531 109.347656 175.886719 108.476562 175.421875 C 107.605469 174.957031 106.710938 174.535156 105.800781 174.15625 C 104.886719 173.78125 103.957031 173.449219 103.011719 173.160156 C 102.066406 172.875 101.109375 172.636719 100.136719 172.441406 C 99.167969 172.25 98.191406 172.105469 97.210938 172.007812 C 96.226562 171.914062 95.238281 171.863281 94.25 171.863281 C 93.261719 171.863281 92.277344 171.914062 91.292969 172.007812 C 90.308594 172.105469 89.332031 172.25 88.363281 172.445312 C 87.394531 172.636719 86.4375 172.875 85.492188 173.164062 C 84.546875 173.449219 83.617188 173.78125 82.703125 174.160156 C 81.792969 174.539062 80.898438 174.960938 80.027344 175.425781 C 79.15625 175.890625 78.308594 176.398438 77.488281 176.945312 C 76.667969 177.496094 75.875 178.082031 75.109375 178.710938 C 74.347656 179.335938 73.613281 180 72.917969 180.695312 C 72.21875 181.394531 71.554688 182.125 70.929688 182.890625 C 70.300781 183.652344 69.714844 184.445312 69.164062 185.265625 C 68.617188 186.085938 68.109375 186.933594 67.644531 187.804688 C 67.175781 188.675781 66.757812 189.566406 66.378906 190.476562 C 66 191.390625 65.667969 192.320312 65.382812 193.261719 C 65.09375 194.207031 64.855469 195.164062 64.664062 196.132812 C 64.46875 197.101562 64.324219 198.078125 64.230469 199.058594 C 64.132812 200.042969 64.085938 201.027344 64.085938 202.011719 C 64.085938 203 64.136719 203.984375 64.238281 204.964844 C 64.335938 205.945312 64.480469 206.917969 64.675781 207.886719 C 64.871094 208.851562 65.109375 209.808594 65.398438 210.75 C 65.6875 211.695312 66.019531 212.621094 66.398438 213.53125 C 66.777344 214.441406 67.199219 215.332031 67.664062 216.199219 C 68.132812 217.070312 68.640625 217.914062 69.1875 218.734375 C 69.738281 219.554688 70.324219 220.34375 70.949219 221.105469 C 71.578125 221.867188 72.238281 222.597656 72.9375 223.292969 C 73.636719 223.992188 74.367188 224.652344 75.128906 225.277344 C 75.890625 225.90625 76.683594 226.492188 77.503906 227.039062 C 78.324219 227.589844 79.167969 228.09375 80.039062 228.5625 C 80.910156 229.027344 81.800781 229.449219 82.710938 229.828125 C 83.625 230.203125 84.550781 230.539062 85.496094 230.824219 C 86.441406 231.113281 87.394531 231.351562 88.363281 231.546875 C 89.332031 231.742188 90.308594 231.886719 91.289062 231.984375 C 92.269531 232.085938 93.253906 232.132812 94.242188 232.136719 Z M 94.242188 232.136719 " fill-opacity="0.7765" fill-rule="evenodd"/><path fill="#00b9f1" d="M 157.433594 274.085938 C 158.332031 274.085938 159.234375 274.046875 160.132812 273.960938 C 161.027344 273.875 161.921875 273.746094 162.804688 273.570312 C 163.691406 273.398438 164.5625 273.179688 165.429688 272.921875 C 166.292969 272.664062 167.140625 272.363281 167.972656 272.019531 C 168.808594 271.675781 169.625 271.292969 170.421875 270.871094 C 171.214844 270.449219 171.992188 269.988281 172.742188 269.492188 C 173.492188 268.992188 174.21875 268.457031 174.914062 267.886719 C 175.613281 267.316406 176.28125 266.714844 176.921875 266.082031 C 177.5625 265.445312 178.167969 264.78125 178.742188 264.085938 C 179.316406 263.390625 179.851562 262.667969 180.355469 261.921875 C 180.859375 261.171875 181.324219 260.402344 181.75 259.609375 C 182.175781 258.816406 182.5625 258.003906 182.910156 257.171875 C 183.257812 256.339844 183.5625 255.492188 183.828125 254.632812 C 184.089844 253.769531 184.3125 252.898438 184.488281 252.015625 C 184.667969 251.132812 184.800781 250.242188 184.890625 249.347656 C 184.980469 248.449219 185.027344 247.550781 185.027344 246.648438 C 185.03125 245.75 184.988281 244.851562 184.902344 243.953125 C 184.8125 243.058594 184.683594 242.167969 184.507812 241.285156 C 184.335938 240.398438 184.117188 239.527344 183.855469 238.664062 C 183.597656 237.800781 183.292969 236.953125 182.949219 236.121094 C 182.605469 235.289062 182.222656 234.476562 181.800781 233.679688 C 181.375 232.882812 180.914062 232.113281 180.414062 231.363281 C 179.914062 230.613281 179.378906 229.890625 178.808594 229.191406 C 178.238281 228.496094 177.632812 227.828125 176.996094 227.191406 C 176.359375 226.550781 175.691406 225.945312 174.996094 225.375 C 174.300781 224.800781 173.578125 224.265625 172.828125 223.761719 C 172.078125 223.261719 171.308594 222.796875 170.511719 222.371094 C 169.71875 221.949219 168.902344 221.5625 168.070312 221.214844 C 167.238281 220.871094 166.390625 220.566406 165.527344 220.304688 C 164.664062 220.042969 163.792969 219.820312 162.90625 219.644531 C 162.023438 219.46875 161.132812 219.335938 160.234375 219.246094 C 159.339844 219.15625 158.4375 219.113281 157.535156 219.109375 C 156.636719 219.109375 155.734375 219.152344 154.835938 219.242188 C 153.941406 219.328125 153.050781 219.460938 152.164062 219.636719 C 151.28125 219.808594 150.40625 220.027344 149.542969 220.289062 C 148.679688 220.550781 147.832031 220.851562 146.996094 221.195312 C 146.164062 221.539062 145.351562 221.925781 144.554688 222.347656 C 143.757812 222.773438 142.984375 223.234375 142.234375 223.734375 C 141.484375 224.234375 140.761719 224.769531 140.066406 225.339844 C 139.367188 225.914062 138.699219 226.515625 138.0625 227.152344 C 137.421875 227.789062 136.820312 228.457031 136.246094 229.152344 C 135.671875 229.847656 135.136719 230.570312 134.636719 231.320312 C 134.132812 232.066406 133.671875 232.839844 133.246094 233.632812 C 132.820312 234.429688 132.433594 235.242188 132.089844 236.074219 C 131.746094 236.90625 131.441406 237.753906 131.179688 238.613281 C 130.917969 239.476562 130.699219 240.347656 130.523438 241.230469 C 130.347656 242.117188 130.214844 243.003906 130.125 243.902344 C 130.035156 244.796875 129.992188 245.695312 129.992188 246.597656 C 129.996094 247.496094 130.039062 248.390625 130.128906 249.285156 C 130.21875 250.179688 130.351562 251.066406 130.527344 251.945312 C 130.703125 252.828125 130.921875 253.699219 131.183594 254.558594 C 131.445312 255.417969 131.75 256.261719 132.09375 257.089844 C 132.4375 257.921875 132.820312 258.730469 133.246094 259.523438 C 133.667969 260.316406 134.128906 261.085938 134.628906 261.832031 C 135.128906 262.578125 135.664062 263.300781 136.234375 263.996094 C 136.800781 264.691406 137.40625 265.355469 138.039062 265.992188 C 138.675781 266.628906 139.339844 267.230469 140.03125 267.800781 C 140.726562 268.371094 141.449219 268.910156 142.195312 269.410156 C 142.941406 269.910156 143.710938 270.371094 144.5 270.796875 C 145.292969 271.222656 146.105469 271.609375 146.933594 271.957031 C 147.761719 272.300781 148.609375 272.605469 149.46875 272.871094 C 150.328125 273.132812 151.195312 273.355469 152.078125 273.535156 C 152.960938 273.714844 153.847656 273.847656 154.742188 273.941406 C 155.636719 274.03125 156.53125 274.082031 157.433594 274.085938 Z M 157.433594 274.085938 " fill-opacity="0.7765" fill-rule="evenodd"/><path fill="#8dc63f" d="M 89.90625 158.800781 C 90.597656 158.800781 91.289062 158.765625 91.976562 158.699219 C 92.667969 158.628906 93.351562 158.527344 94.03125 158.394531 C 94.710938 158.257812 95.378906 158.089844 96.042969 157.890625 C 96.707031 157.6875 97.355469 157.457031 97.996094 157.191406 C 98.636719 156.925781 99.261719 156.632812 99.871094 156.304688 C 100.484375 155.980469 101.074219 155.625 101.652344 155.238281 C 102.226562 154.855469 102.78125 154.445312 103.316406 154.003906 C 103.855469 153.566406 104.367188 153.101562 104.855469 152.613281 C 105.34375 152.125 105.808594 151.613281 106.25 151.078125 C 106.6875 150.542969 107.101562 149.988281 107.484375 149.410156 C 107.871094 148.835938 108.226562 148.242188 108.550781 147.632812 C 108.878906 147.023438 109.171875 146.398438 109.4375 145.761719 C 109.703125 145.121094 109.9375 144.46875 110.136719 143.808594 C 110.335938 143.148438 110.503906 142.476562 110.640625 141.796875 C 110.777344 141.121094 110.878906 140.4375 110.945312 139.746094 C 111.011719 139.058594 111.046875 138.371094 111.046875 137.675781 C 111.046875 136.984375 111.011719 136.296875 110.945312 135.605469 C 110.875 134.917969 110.773438 134.234375 110.640625 133.558594 C 110.503906 132.878906 110.335938 132.207031 110.132812 131.546875 C 109.933594 130.886719 109.699219 130.234375 109.433594 129.59375 C 109.167969 128.957031 108.875 128.332031 108.546875 127.722656 C 108.21875 127.113281 107.863281 126.519531 107.480469 125.945312 C 107.09375 125.371094 106.683594 124.816406 106.242188 124.28125 C 105.804688 123.746094 105.339844 123.234375 104.847656 122.746094 C 104.359375 122.257812 103.847656 121.792969 103.3125 121.351562 C 102.777344 120.914062 102.21875 120.503906 101.644531 120.121094 C 101.070312 119.734375 100.476562 119.378906 99.863281 119.054688 C 99.253906 118.726562 98.628906 118.433594 97.988281 118.167969 C 97.347656 117.90625 96.695312 117.671875 96.035156 117.472656 C 95.371094 117.269531 94.699219 117.101562 94.019531 116.96875 C 93.34375 116.832031 92.65625 116.734375 91.96875 116.664062 C 91.28125 116.597656 90.589844 116.5625 89.894531 116.5625 C 89.203125 116.566406 88.511719 116.597656 87.824219 116.667969 C 87.132812 116.734375 86.449219 116.835938 85.769531 116.972656 C 85.09375 117.105469 84.421875 117.273438 83.757812 117.476562 C 83.097656 117.675781 82.445312 117.910156 81.804688 118.175781 C 81.164062 118.441406 80.539062 118.734375 79.929688 119.0625 C 79.320312 119.390625 78.726562 119.746094 78.152344 120.128906 C 77.574219 120.511719 77.019531 120.925781 76.484375 121.363281 C 75.949219 121.804688 75.4375 122.269531 74.949219 122.757812 C 74.457031 123.246094 73.996094 123.757812 73.554688 124.292969 C 73.117188 124.828125 72.703125 125.382812 72.320312 125.960938 C 71.933594 126.535156 71.582031 127.128906 71.253906 127.738281 C 70.929688 128.347656 70.632812 128.972656 70.367188 129.613281 C 70.101562 130.25 69.871094 130.902344 69.671875 131.5625 C 69.46875 132.226562 69.300781 132.894531 69.167969 133.574219 C 69.03125 134.253906 68.929688 134.9375 68.863281 135.625 C 68.796875 136.3125 68.761719 137.003906 68.761719 137.695312 C 68.765625 138.386719 68.800781 139.074219 68.867188 139.761719 C 68.9375 140.449219 69.039062 141.132812 69.175781 141.8125 C 69.3125 142.488281 69.480469 143.15625 69.683594 143.820312 C 69.882812 144.480469 70.117188 145.128906 70.382812 145.769531 C 70.648438 146.40625 70.945312 147.03125 71.273438 147.640625 C 71.597656 148.25 71.953125 148.839844 72.339844 149.414062 C 72.722656 149.988281 73.136719 150.542969 73.574219 151.078125 C 74.015625 151.613281 74.476562 152.121094 74.96875 152.609375 C 75.457031 153.101562 75.96875 153.5625 76.503906 154 C 77.039062 154.441406 77.59375 154.851562 78.167969 155.234375 C 78.746094 155.621094 79.335938 155.972656 79.949219 156.300781 C 80.558594 156.625 81.183594 156.921875 81.820312 157.1875 C 82.460938 157.449219 83.109375 157.683594 83.773438 157.886719 C 84.433594 158.085938 85.105469 158.253906 85.785156 158.390625 C 86.460938 158.523438 87.144531 158.628906 87.835938 158.695312 C 88.523438 158.765625 89.214844 158.796875 89.90625 158.800781 Z M 89.90625 158.800781 " fill-opacity="0.7765" fill-rule="evenodd"/><g clip-path="url(#36d5cd0260)"><path fill="#ffd900" d="M 79.359375 85.214844 C 79.359375 85.8125 79.332031 86.410156 79.273438 87.007812 C 79.214844 87.601562 79.125 88.195312 79.007812 88.78125 C 78.890625 89.367188 78.746094 89.949219 78.570312 90.523438 C 78.398438 91.09375 78.195312 91.660156 77.964844 92.210938 C 77.738281 92.765625 77.480469 93.304688 77.199219 93.832031 C 76.917969 94.363281 76.609375 94.875 76.273438 95.371094 C 75.941406 95.871094 75.585938 96.351562 75.203125 96.8125 C 74.824219 97.277344 74.421875 97.71875 74 98.144531 C 73.574219 98.566406 73.128906 98.96875 72.667969 99.347656 C 72.203125 99.730469 71.722656 100.085938 71.222656 100.417969 C 70.726562 100.75 70.210938 101.058594 69.683594 101.339844 C 69.15625 101.621094 68.613281 101.878906 68.058594 102.109375 C 67.503906 102.335938 66.941406 102.539062 66.367188 102.710938 C 65.792969 102.886719 65.214844 103.03125 64.625 103.148438 C 64.039062 103.265625 63.445312 103.351562 62.847656 103.410156 C 62.25 103.46875 61.652344 103.5 61.054688 103.5 C 60.453125 103.5 59.855469 103.46875 59.261719 103.410156 C 58.664062 103.351562 58.070312 103.265625 57.484375 103.148438 C 56.894531 103.03125 56.3125 102.886719 55.738281 102.710938 C 55.167969 102.539062 54.601562 102.335938 54.046875 102.109375 C 53.496094 101.878906 52.953125 101.621094 52.425781 101.339844 C 51.894531 101.058594 51.382812 100.75 50.882812 100.417969 C 50.386719 100.085938 49.90625 99.730469 49.441406 99.347656 C 48.976562 98.96875 48.535156 98.566406 48.109375 98.144531 C 47.6875 97.71875 47.285156 97.277344 46.902344 96.8125 C 46.523438 96.351562 46.167969 95.871094 45.832031 95.371094 C 45.5 94.875 45.191406 94.363281 44.910156 93.832031 C 44.628906 93.304688 44.371094 92.765625 44.140625 92.210938 C 43.914062 91.660156 43.710938 91.09375 43.535156 90.523438 C 43.363281 89.949219 43.21875 89.367188 43.101562 88.78125 C 42.984375 88.195312 42.894531 87.601562 42.835938 87.007812 C 42.777344 86.410156 42.75 85.8125 42.75 85.214844 C 42.75 84.617188 42.777344 84.019531 42.835938 83.421875 C 42.894531 82.824219 42.984375 82.234375 43.101562 81.648438 C 43.21875 81.058594 43.363281 80.480469 43.535156 79.90625 C 43.710938 79.332031 43.914062 78.769531 44.140625 78.214844 C 44.371094 77.664062 44.628906 77.121094 44.910156 76.59375 C 45.191406 76.066406 45.5 75.554688 45.832031 75.054688 C 46.167969 74.558594 46.523438 74.078125 46.902344 73.613281 C 47.285156 73.152344 47.6875 72.707031 48.109375 72.285156 C 48.535156 71.859375 48.976562 71.460938 49.441406 71.078125 C 49.90625 70.699219 50.386719 70.34375 50.882812 70.011719 C 51.382812 69.679688 51.894531 69.371094 52.425781 69.089844 C 52.953125 68.804688 53.496094 68.550781 54.046875 68.320312 C 54.601562 68.089844 55.167969 67.890625 55.738281 67.714844 C 56.3125 67.542969 56.894531 67.398438 57.484375 67.28125 C 58.070312 67.164062 58.664062 67.074219 59.261719 67.015625 C 59.855469 66.957031 60.453125 66.929688 61.054688 66.929688 C 61.652344 66.929688 62.25 66.957031 62.847656 67.015625 C 63.445312 67.074219 64.039062 67.164062 64.625 67.28125 C 65.214844 67.398438 65.792969 67.542969 66.367188 67.714844 C 66.941406 67.890625 67.503906 68.089844 68.058594 68.320312 C 68.613281 68.550781 69.15625 68.804688 69.683594 69.089844 C 70.210938 69.371094 70.726562 69.679688 71.222656 70.011719 C 71.722656 70.34375 72.203125 70.699219 72.667969 71.078125 C 73.128906 71.460938 73.574219 71.859375 74 72.285156 C 74.421875 72.707031 74.824219 73.152344 75.203125 73.613281 C 75.585938 74.078125 75.941406 74.558594 76.273438 75.054688 C 76.609375 75.554688 76.917969 76.066406 77.199219 76.59375 C 77.480469 77.121094 77.738281 77.664062 77.964844 78.214844 C 78.195312 78.769531 78.398438 79.332031 78.570312 79.90625 C 78.746094 80.480469 78.890625 81.058594 79.007812 81.648438 C 79.125 82.234375 79.214844 82.824219 79.273438 83.421875 C 79.332031 84.019531 79.359375 84.617188 79.359375 85.214844 Z M 79.359375 85.214844 " fill-opacity="0.7765" fill-rule="nonzero"/></g><path fill="#009444" d="M 99.730469 51.710938 C 100.289062 51.710938 100.847656 51.683594 101.40625 51.628906 C 101.964844 51.574219 102.515625 51.492188 103.066406 51.386719 C 103.613281 51.277344 104.15625 51.140625 104.691406 50.980469 C 105.230469 50.816406 105.753906 50.628906 106.273438 50.414062 C 106.789062 50.203125 107.296875 49.964844 107.789062 49.699219 C 108.285156 49.4375 108.765625 49.148438 109.230469 48.839844 C 109.695312 48.53125 110.144531 48.195312 110.578125 47.84375 C 111.011719 47.488281 111.425781 47.113281 111.820312 46.71875 C 112.21875 46.324219 112.59375 45.910156 112.949219 45.476562 C 113.304688 45.046875 113.636719 44.597656 113.949219 44.132812 C 114.261719 43.667969 114.546875 43.1875 114.8125 42.695312 C 115.074219 42.203125 115.316406 41.699219 115.53125 41.179688 C 115.746094 40.664062 115.933594 40.140625 116.097656 39.605469 C 116.257812 39.070312 116.394531 38.527344 116.503906 37.980469 C 116.613281 37.429688 116.695312 36.878906 116.75 36.320312 C 116.808594 35.765625 116.835938 35.207031 116.835938 34.648438 C 116.835938 34.089844 116.808594 33.53125 116.753906 32.972656 C 116.699219 32.417969 116.617188 31.863281 116.507812 31.316406 C 116.398438 30.769531 116.261719 30.226562 116.101562 29.691406 C 115.9375 29.15625 115.75 28.628906 115.535156 28.113281 C 115.324219 27.597656 115.082031 27.089844 114.820312 26.597656 C 114.554688 26.105469 114.269531 25.625 113.957031 25.160156 C 113.648438 24.695312 113.316406 24.246094 112.960938 23.8125 C 112.605469 23.382812 112.230469 22.96875 111.832031 22.574219 C 111.4375 22.175781 111.023438 21.800781 110.589844 21.445312 C 110.160156 21.089844 109.710938 20.757812 109.242188 20.449219 C 108.777344 20.136719 108.300781 19.851562 107.804688 19.585938 C 107.3125 19.320312 106.804688 19.082031 106.289062 18.867188 C 105.773438 18.65625 105.246094 18.464844 104.710938 18.304688 C 104.175781 18.140625 103.632812 18.003906 103.082031 17.898438 C 102.535156 17.789062 101.980469 17.707031 101.421875 17.648438 C 100.867188 17.59375 100.308594 17.566406 99.75 17.566406 C 99.1875 17.566406 98.628906 17.59375 98.074219 17.648438 C 97.515625 17.703125 96.960938 17.785156 96.414062 17.894531 C 95.863281 18.003906 95.320312 18.140625 94.785156 18.300781 C 94.25 18.464844 93.722656 18.652344 93.207031 18.867188 C 92.6875 19.078125 92.183594 19.320312 91.691406 19.582031 C 91.195312 19.84375 90.714844 20.132812 90.25 20.441406 C 89.785156 20.753906 89.335938 21.085938 88.902344 21.441406 C 88.46875 21.796875 88.054688 22.171875 87.660156 22.566406 C 87.265625 22.960938 86.890625 23.375 86.535156 23.808594 C 86.179688 24.238281 85.84375 24.6875 85.535156 25.152344 C 85.222656 25.617188 84.9375 26.097656 84.671875 26.589844 C 84.40625 27.082031 84.167969 27.589844 83.953125 28.105469 C 83.738281 28.621094 83.550781 29.148438 83.390625 29.683594 C 83.226562 30.21875 83.089844 30.757812 82.980469 31.308594 C 82.871094 31.855469 82.789062 32.410156 82.734375 32.964844 C 82.679688 33.523438 82.652344 34.078125 82.652344 34.640625 C 82.652344 35.199219 82.683594 35.753906 82.738281 36.3125 C 82.792969 36.867188 82.875 37.417969 82.984375 37.964844 C 83.09375 38.515625 83.230469 39.054688 83.394531 39.589844 C 83.558594 40.125 83.746094 40.648438 83.960938 41.164062 C 84.175781 41.679688 84.414062 42.183594 84.675781 42.679688 C 84.941406 43.171875 85.226562 43.648438 85.539062 44.113281 C 85.847656 44.578125 86.183594 45.027344 86.535156 45.457031 C 86.890625 45.890625 87.265625 46.304688 87.660156 46.699219 C 88.058594 47.09375 88.472656 47.46875 88.902344 47.824219 C 89.335938 48.175781 89.785156 48.511719 90.246094 48.820312 C 90.710938 49.132812 91.191406 49.417969 91.683594 49.683594 C 92.175781 49.945312 92.683594 50.1875 93.199219 50.402344 C 93.714844 50.613281 94.242188 50.804688 94.773438 50.964844 C 95.308594 51.128906 95.851562 51.265625 96.398438 51.375 C 96.949219 51.484375 97.5 51.570312 98.058594 51.625 C 98.613281 51.679688 99.171875 51.710938 99.730469 51.710938 Z M 99.730469 51.710938 " fill-opacity="0.7765" fill-rule="evenodd"/><path fill="#56ba48" d="M 105.53125 94.257812 C 106.273438 94.257812 107.007812 94.1875 107.734375 94.042969 C 108.460938 93.898438 109.167969 93.683594 109.851562 93.402344 C 110.539062 93.117188 111.1875 92.769531 111.804688 92.359375 C 112.421875 91.945312 112.992188 91.480469 113.515625 90.957031 C 114.039062 90.433594 114.507812 89.863281 114.917969 89.246094 C 115.332031 88.632812 115.679688 87.980469 115.960938 87.296875 C 116.246094 86.613281 116.460938 85.910156 116.605469 85.183594 C 116.75 84.457031 116.820312 83.722656 116.820312 82.980469 C 116.820312 82.242188 116.75 81.507812 116.605469 80.78125 C 116.460938 80.054688 116.246094 79.351562 115.960938 78.667969 C 115.679688 77.984375 115.332031 77.332031 114.917969 76.71875 C 114.507812 76.101562 114.039062 75.53125 113.515625 75.007812 C 112.992188 74.484375 112.421875 74.015625 111.804688 73.605469 C 111.1875 73.195312 110.539062 72.847656 109.851562 72.5625 C 109.167969 72.28125 108.460938 72.066406 107.734375 71.921875 C 107.007812 71.777344 106.273438 71.707031 105.53125 71.707031 C 104.789062 71.707031 104.058594 71.777344 103.328125 71.921875 C 102.601562 72.066406 101.898438 72.28125 101.210938 72.5625 C 100.527344 72.847656 99.875 73.195312 99.261719 73.605469 C 98.644531 74.015625 98.074219 74.484375 97.550781 75.007812 C 97.023438 75.53125 96.558594 76.101562 96.144531 76.71875 C 95.734375 77.332031 95.386719 77.984375 95.101562 78.667969 C 94.820312 79.351562 94.605469 80.054688 94.460938 80.78125 C 94.316406 81.507812 94.242188 82.242188 94.242188 82.980469 C 94.246094 83.722656 94.316406 84.453125 94.464844 85.179688 C 94.609375 85.90625 94.824219 86.609375 95.109375 87.292969 C 95.394531 87.976562 95.742188 88.625 96.152344 89.242188 C 96.566406 89.855469 97.035156 90.425781 97.558594 90.949219 C 98.082031 91.472656 98.652344 91.9375 99.265625 92.351562 C 99.882812 92.761719 100.53125 93.109375 101.214844 93.394531 C 101.898438 93.675781 102.605469 93.890625 103.332031 94.039062 C 104.058594 94.183594 104.792969 94.257812 105.53125 94.257812 Z M 105.53125 94.257812 " fill-opacity="0.7765" fill-rule="evenodd"/><path fill="#fbad17" d="M 129.078125 22.554688 C 129.820312 22.554688 130.554688 22.480469 131.28125 22.335938 C 132.007812 22.191406 132.714844 21.976562 133.398438 21.695312 C 134.082031 21.410156 134.734375 21.0625 135.351562 20.652344 C 135.964844 20.242188 136.535156 19.773438 137.0625 19.25 C 137.585938 18.726562 138.054688 18.15625 138.464844 17.542969 C 138.875 16.925781 139.222656 16.277344 139.507812 15.59375 C 139.792969 14.90625 140.003906 14.203125 140.148438 13.476562 C 140.296875 12.75 140.367188 12.015625 140.367188 11.277344 C 140.367188 10.535156 140.296875 9.804688 140.148438 9.078125 C 140.003906 8.351562 139.792969 7.644531 139.507812 6.960938 C 139.222656 6.277344 138.875 5.628906 138.464844 5.011719 C 138.054688 4.394531 137.585938 3.828125 137.0625 3.304688 C 136.535156 2.777344 135.964844 2.3125 135.351562 1.902344 C 134.734375 1.488281 134.082031 1.140625 133.398438 0.859375 C 132.714844 0.574219 132.007812 0.359375 131.28125 0.214844 C 130.554688 0.0703125 129.820312 0 129.078125 0 C 128.335938 0 127.601562 0.0703125 126.875 0.214844 C 126.148438 0.359375 125.441406 0.574219 124.757812 0.859375 C 124.074219 1.140625 123.421875 1.488281 122.804688 1.902344 C 122.191406 2.3125 121.621094 2.777344 121.09375 3.304688 C 120.570312 3.828125 120.101562 4.394531 119.691406 5.011719 C 119.277344 5.628906 118.929688 6.277344 118.648438 6.960938 C 118.363281 7.644531 118.148438 8.351562 118.003906 9.078125 C 117.859375 9.804688 117.789062 10.535156 117.789062 11.277344 C 117.789062 12.015625 117.863281 12.75 118.007812 13.476562 C 118.15625 14.199219 118.371094 14.90625 118.65625 15.589844 C 118.9375 16.269531 119.289062 16.921875 119.699219 17.535156 C 120.109375 18.152344 120.578125 18.71875 121.101562 19.242188 C 121.625 19.765625 122.195312 20.234375 122.8125 20.644531 C 123.425781 21.054688 124.078125 21.402344 124.761719 21.6875 C 125.445312 21.972656 126.152344 22.1875 126.878906 22.332031 C 127.605469 22.476562 128.335938 22.550781 129.078125 22.554688 Z M 129.078125 22.554688 " fill-opacity="0.7765" fill-rule="evenodd"/><path fill="#f15c22" d="M 59.734375 47.691406 C 60.296875 47.6875 60.851562 47.632812 61.398438 47.519531 C 61.949219 47.40625 62.480469 47.242188 63 47.027344 C 63.515625 46.8125 64.007812 46.546875 64.472656 46.234375 C 64.9375 45.921875 65.367188 45.566406 65.761719 45.167969 C 66.15625 44.769531 66.507812 44.339844 66.816406 43.871094 C 67.128906 43.40625 67.390625 42.914062 67.601562 42.394531 C 67.8125 41.875 67.972656 41.34375 68.082031 40.792969 C 68.1875 40.242188 68.242188 39.6875 68.242188 39.128906 C 68.238281 38.570312 68.183594 38.015625 68.070312 37.464844 C 67.960938 36.917969 67.796875 36.382812 67.582031 35.867188 C 67.367188 35.351562 67.101562 34.859375 66.789062 34.394531 C 66.476562 33.929688 66.121094 33.5 65.722656 33.105469 C 65.328125 32.710938 64.894531 32.359375 64.429688 32.046875 C 63.960938 31.738281 63.46875 31.476562 62.949219 31.261719 C 62.433594 31.050781 61.898438 30.890625 61.347656 30.78125 C 60.796875 30.671875 60.242188 30.617188 59.683594 30.621094 C 59.121094 30.621094 58.566406 30.675781 58.015625 30.785156 C 57.46875 30.894531 56.933594 31.058594 56.417969 31.273438 C 55.898438 31.488281 55.40625 31.75 54.941406 32.0625 C 54.476562 32.375 54.042969 32.726562 53.648438 33.125 C 53.253906 33.519531 52.898438 33.949219 52.585938 34.417969 C 52.277344 34.882812 52.011719 35.375 51.800781 35.890625 C 51.585938 36.410156 51.421875 36.941406 51.3125 37.492188 C 51.203125 38.039062 51.148438 38.59375 51.148438 39.15625 C 51.152344 39.714844 51.207031 40.273438 51.320312 40.824219 C 51.429688 41.375 51.59375 41.90625 51.8125 42.425781 C 52.027344 42.945312 52.292969 43.4375 52.605469 43.902344 C 52.917969 44.371094 53.277344 44.800781 53.675781 45.195312 C 54.074219 45.59375 54.507812 45.945312 54.972656 46.257812 C 55.441406 46.570312 55.9375 46.832031 56.457031 47.046875 C 56.976562 47.257812 57.511719 47.421875 58.0625 47.527344 C 58.613281 47.636719 59.171875 47.691406 59.734375 47.691406 Z M 59.734375 47.691406 " fill-opacity="0.7765" fill-rule="evenodd"/><path fill="#fbad17" d="M 262.863281 134.769531 C 262.863281 135.9375 262.835938 137.105469 262.777344 138.269531 C 262.722656 139.4375 262.636719 140.601562 262.519531 141.761719 C 262.40625 142.925781 262.261719 144.082031 262.09375 145.238281 C 261.921875 146.390625 261.722656 147.542969 261.492188 148.6875 C 261.265625 149.832031 261.007812 150.96875 260.726562 152.101562 C 260.441406 153.234375 260.128906 154.359375 259.789062 155.476562 C 259.449219 156.59375 259.085938 157.703125 258.691406 158.800781 C 258.296875 159.898438 257.875 160.988281 257.429688 162.066406 C 256.980469 163.144531 256.507812 164.210938 256.007812 165.269531 C 255.507812 166.324219 254.984375 167.367188 254.433594 168.394531 C 253.882812 169.425781 253.304688 170.441406 252.707031 171.441406 C 252.105469 172.441406 251.480469 173.429688 250.832031 174.398438 C 250.179688 175.371094 249.507812 176.324219 248.8125 177.261719 C 248.117188 178.199219 247.398438 179.117188 246.65625 180.019531 C 245.914062 180.921875 245.152344 181.808594 244.367188 182.671875 C 243.582031 183.535156 242.777344 184.382812 241.949219 185.207031 C 241.125 186.03125 240.277344 186.835938 239.410156 187.621094 C 238.546875 188.40625 237.660156 189.167969 236.757812 189.90625 C 235.855469 190.648438 234.933594 191.367188 233.996094 192.0625 C 233.054688 192.757812 232.101562 193.429688 231.128906 194.078125 C 230.15625 194.726562 229.171875 195.351562 228.167969 195.949219 C 227.164062 196.550781 226.148438 197.125 225.117188 197.675781 C 224.085938 198.226562 223.042969 198.75 221.988281 199.25 C 220.929688 199.75 219.863281 200.222656 218.785156 200.667969 C 217.703125 201.117188 216.613281 201.535156 215.511719 201.929688 C 214.414062 202.324219 213.304688 202.6875 212.183594 203.027344 C 211.066406 203.367188 209.941406 203.675781 208.808594 203.960938 C 207.675781 204.246094 206.535156 204.5 205.386719 204.726562 C 204.242188 204.957031 203.089844 205.15625 201.933594 205.328125 C 200.777344 205.496094 199.617188 205.640625 198.457031 205.753906 C 197.292969 205.871094 196.128906 205.957031 194.960938 206.011719 C 193.792969 206.070312 192.625 206.097656 191.457031 206.097656 C 190.289062 206.097656 189.121094 206.070312 187.953125 206.011719 C 186.785156 205.957031 185.621094 205.871094 184.457031 205.753906 C 183.292969 205.640625 182.136719 205.496094 180.980469 205.328125 C 179.824219 205.15625 178.671875 204.957031 177.527344 204.726562 C 176.378906 204.5 175.238281 204.246094 174.105469 203.960938 C 172.972656 203.675781 171.847656 203.367188 170.726562 203.027344 C 169.609375 202.6875 168.5 202.324219 167.398438 201.929688 C 166.300781 201.535156 165.210938 201.117188 164.128906 200.667969 C 163.050781 200.222656 161.984375 199.75 160.925781 199.25 C 159.871094 198.75 158.824219 198.226562 157.796875 197.675781 C 156.765625 197.125 155.75 196.550781 154.746094 195.949219 C 153.742188 195.351562 152.757812 194.726562 151.785156 194.078125 C 150.8125 193.429688 149.859375 192.757812 148.917969 192.0625 C 147.980469 191.367188 147.058594 190.648438 146.15625 189.90625 C 145.253906 189.167969 144.367188 188.40625 143.503906 187.621094 C 142.636719 186.835938 141.789062 186.03125 140.964844 185.207031 C 140.136719 184.382812 139.332031 183.535156 138.546875 182.671875 C 137.761719 181.808594 137 180.921875 136.257812 180.019531 C 135.515625 179.117188 134.796875 178.199219 134.101562 177.261719 C 133.40625 176.324219 132.734375 175.371094 132.082031 174.398438 C 131.433594 173.429688 130.808594 172.441406 130.207031 171.441406 C 129.609375 170.441406 129.03125 169.425781 128.480469 168.394531 C 127.929688 167.367188 127.40625 166.324219 126.90625 165.269531 C 126.40625 164.210938 125.933594 163.144531 125.484375 162.066406 C 125.039062 160.988281 124.617188 159.898438 124.222656 158.800781 C 123.828125 157.703125 123.464844 156.59375 123.125 155.476562 C 122.785156 154.359375 122.472656 153.234375 122.1875 152.101562 C 121.90625 150.96875 121.648438 149.832031 121.421875 148.6875 C 121.191406 147.542969 120.992188 146.390625 120.820312 145.238281 C 120.648438 144.082031 120.507812 142.925781 120.394531 141.761719 C 120.277344 140.601562 120.191406 139.4375 120.136719 138.269531 C 120.078125 137.105469 120.050781 135.9375 120.050781 134.769531 C 120.050781 133.605469 120.078125 132.4375 120.136719 131.269531 C 120.191406 130.105469 120.277344 128.941406 120.394531 127.78125 C 120.507812 126.617188 120.652344 125.460938 120.820312 124.304688 C 120.992188 123.152344 121.191406 122 121.421875 120.855469 C 121.648438 119.710938 121.90625 118.574219 122.1875 117.441406 C 122.472656 116.308594 122.785156 115.183594 123.125 114.066406 C 123.464844 112.949219 123.828125 111.839844 124.222656 110.742188 C 124.617188 109.644531 125.039062 108.554688 125.484375 107.476562 C 125.933594 106.398438 126.40625 105.332031 126.90625 104.273438 C 127.40625 103.21875 127.929688 102.175781 128.480469 101.148438 C 129.03125 100.117188 129.609375 99.101562 130.207031 98.101562 C 130.808594 97.101562 131.433594 96.113281 132.082031 95.144531 C 132.734375 94.171875 133.40625 93.21875 134.101562 92.28125 C 134.796875 91.34375 135.515625 90.425781 136.257812 89.523438 C 137 88.621094 137.761719 87.734375 138.546875 86.871094 C 139.332031 86.007812 140.136719 85.160156 140.964844 84.335938 C 141.789062 83.511719 142.636719 82.707031 143.503906 81.921875 C 144.367188 81.136719 145.253906 80.375 146.15625 79.632812 C 147.058594 78.894531 147.980469 78.175781 148.917969 77.480469 C 149.859375 76.785156 150.8125 76.113281 151.785156 75.464844 C 152.757812 74.816406 153.742188 74.191406 154.746094 73.59375 C 155.75 72.992188 156.765625 72.417969 157.796875 71.867188 C 158.824219 71.316406 159.871094 70.792969 160.925781 70.292969 C 161.984375 69.792969 163.050781 69.320312 164.128906 68.875 C 165.210938 68.425781 166.300781 68.007812 167.398438 67.613281 C 168.5 67.21875 169.609375 66.855469 170.726562 66.515625 C 171.847656 66.175781 172.972656 65.867188 174.105469 65.582031 C 175.238281 65.296875 176.378906 65.042969 177.527344 64.816406 C 178.671875 64.585938 179.824219 64.386719 180.980469 64.214844 C 182.136719 64.042969 183.292969 63.902344 184.457031 63.789062 C 185.621094 63.671875 186.785156 63.585938 187.953125 63.53125 C 189.121094 63.472656 190.289062 63.445312 191.457031 63.445312 C 192.625 63.445312 193.792969 63.472656 194.960938 63.53125 C 196.128906 63.585938 197.292969 63.671875 198.457031 63.789062 C 199.617188 63.902344 200.777344 64.042969 201.933594 64.214844 C 203.089844 64.386719 204.242188 64.585938 205.386719 64.816406 C 206.535156 65.042969 207.675781 65.296875 208.808594 65.582031 C 209.941406 65.867188 211.066406 66.175781 212.183594 66.515625 C 213.304688 66.855469 214.414062 67.21875 215.511719 67.613281 C 216.613281 68.007812 217.703125 68.425781 218.785156 68.875 C 219.863281 69.320312 220.929688 69.792969 221.988281 70.292969 C 223.042969 70.792969 224.085938 71.316406 225.117188 71.867188 C 226.148438 72.417969 227.164062 72.992188 228.167969 73.59375 C 229.171875 74.191406 230.15625 74.816406 231.128906 75.464844 C 232.101562 76.113281 233.054688 76.785156 233.996094 77.480469 C 234.933594 78.175781 235.855469 78.894531 236.757812 79.632812 C 237.660156 80.375 238.546875 81.136719 239.410156 81.921875 C 240.277344 82.707031 241.125 83.511719 241.949219 84.335938 C 242.777344 85.160156 243.582031 86.007812 244.367188 86.871094 C 245.152344 87.734375 245.914062 88.621094 246.65625 89.523438 C 247.398438 90.425781 248.117188 91.34375 248.8125 92.28125 C 249.507812 93.21875 250.179688 94.171875 250.832031 95.144531 C 251.480469 96.113281 252.105469 97.101562 252.707031 98.101562 C 253.304688 99.101562 253.882812 100.117188 254.433594 101.148438 C 254.984375 102.175781 255.507812 103.21875 256.007812 104.273438 C 256.507812 105.332031 256.980469 106.398438 257.429688 107.476562 C 257.875 108.554688 258.296875 109.644531 258.691406 110.742188 C 259.085938 111.839844 259.449219 112.949219 259.789062 114.066406 C 260.128906 115.183594 260.441406 116.308594 260.726562 117.441406 C 261.007812 118.574219 261.265625 119.710938 261.492188 120.855469 C 261.722656 122 261.921875 123.152344 262.09375 124.304688 C 262.261719 125.460938 262.40625 126.617188 262.519531 127.78125 C 262.636719 128.941406 262.722656 130.105469 262.777344 131.269531 C 262.835938 132.4375 262.863281 133.605469 262.863281 134.769531 Z M 262.863281 134.769531 " fill-opacity="0.7765" fill-rule="nonzero"/><path fill="#ec008b" d="M 230.90625 26.808594 C 265.125 33.855469 293.792969 50.980469 310.699219 75.609375 C 310.554688 76.652344 310.378906 77.6875 310.167969 78.71875 C 309.960938 79.753906 309.71875 80.777344 309.445312 81.792969 C 309.171875 82.808594 308.867188 83.816406 308.53125 84.816406 C 308.195312 85.8125 307.832031 86.800781 307.433594 87.777344 C 307.039062 88.75 306.609375 89.714844 306.152344 90.664062 C 305.699219 91.613281 305.210938 92.546875 304.699219 93.464844 C 304.183594 94.382812 303.640625 95.285156 303.070312 96.171875 C 302.5 97.058594 301.902344 97.925781 301.28125 98.773438 C 300.65625 99.621094 300.003906 100.449219 299.328125 101.257812 C 298.65625 102.066406 297.953125 102.851562 297.230469 103.617188 C 296.507812 104.382812 295.757812 105.125 294.988281 105.84375 C 294.21875 106.5625 293.425781 107.257812 292.613281 107.925781 C 291.800781 108.59375 290.964844 109.238281 290.113281 109.859375 C 289.261719 110.476562 288.386719 111.066406 287.5 111.632812 C 286.609375 112.195312 285.703125 112.730469 284.777344 113.238281 C 283.855469 113.746094 282.917969 114.226562 281.964844 114.675781 C 281.011719 115.125 280.046875 115.546875 279.066406 115.9375 C 278.085938 116.328125 277.097656 116.6875 276.097656 117.015625 C 275.09375 117.34375 274.085938 117.640625 273.0625 117.910156 C 272.042969 118.175781 271.019531 118.410156 269.984375 118.613281 C 268.949219 118.816406 267.910156 118.984375 266.863281 119.125 C 265.820312 119.261719 264.769531 119.371094 263.71875 119.441406 C 262.667969 119.515625 261.617188 119.558594 260.5625 119.566406 C 259.507812 119.574219 258.453125 119.550781 257.402344 119.492188 C 256.347656 119.4375 255.300781 119.347656 254.253906 119.226562 C 253.207031 119.105469 252.164062 118.949219 251.125 118.765625 C 250.089844 118.578125 249.058594 118.359375 248.035156 118.109375 C 247.007812 117.859375 245.996094 117.578125 244.988281 117.265625 C 243.980469 116.953125 242.984375 116.609375 242 116.234375 C 241.015625 115.859375 240.042969 115.457031 239.082031 115.023438 C 238.121094 114.585938 237.175781 114.125 236.246094 113.628906 C 235.3125 113.136719 234.398438 112.617188 233.5 112.066406 C 232.601562 111.515625 231.71875 110.9375 230.855469 110.335938 C 229.992188 109.730469 229.148438 109.101562 228.328125 108.445312 C 227.503906 107.789062 226.699219 107.105469 225.917969 106.398438 C 225.136719 105.695312 224.375 104.964844 223.640625 104.210938 C 222.902344 103.457031 222.191406 102.683594 221.503906 101.886719 C 220.8125 101.089844 220.152344 100.269531 219.511719 99.433594 C 218.875 98.59375 218.265625 97.734375 217.679688 96.859375 C 217.09375 95.984375 216.539062 95.089844 216.007812 94.179688 C 215.480469 93.269531 214.980469 92.34375 214.507812 91.402344 C 214.035156 90.460938 213.59375 89.503906 213.183594 88.535156 C 212.769531 87.566406 212.386719 86.585938 212.035156 85.59375 C 211.683594 84.601562 211.363281 83.597656 211.074219 82.585938 C 210.785156 81.574219 210.527344 80.554688 210.300781 79.523438 C 210.074219 78.496094 209.878906 77.460938 209.71875 76.421875 C 209.554688 75.382812 209.425781 74.335938 209.328125 73.289062 C 209.234375 72.242188 209.167969 71.191406 209.136719 70.136719 C 209.105469 69.085938 209.105469 68.03125 209.136719 66.980469 C 209.171875 65.929688 209.238281 64.878906 209.335938 63.828125 C 209.433594 62.78125 209.5625 61.738281 209.726562 60.695312 C 209.890625 59.65625 210.085938 58.621094 210.3125 57.59375 C 210.539062 56.566406 210.800781 55.546875 211.089844 54.535156 C 211.378906 53.523438 211.703125 52.519531 212.054688 51.527344 C 212.40625 50.535156 212.789062 49.554688 213.203125 48.585938 C 213.617188 47.617188 214.0625 46.664062 214.535156 45.722656 C 215.007812 44.78125 215.507812 43.855469 216.039062 42.945312 C 216.570312 42.035156 217.125 41.144531 217.710938 40.269531 C 218.296875 39.394531 218.910156 38.535156 219.546875 37.699219 C 220.1875 36.859375 220.851562 36.042969 221.539062 35.246094 C 222.230469 34.449219 222.941406 33.675781 223.679688 32.925781 C 224.417969 32.171875 225.175781 31.441406 225.960938 30.738281 C 226.742188 30.03125 227.546875 29.351562 228.371094 28.695312 C 229.195312 28.039062 230.039062 27.410156 230.90625 26.808594 Z M 230.90625 26.808594 " fill-opacity="0.7765" fill-rule="evenodd"/><path fill="#56ba48" d="M 167.414062 103.511719 C 168.816406 103.511719 170.210938 103.445312 171.605469 103.308594 C 173 103.171875 174.386719 102.96875 175.757812 102.695312 C 177.132812 102.421875 178.488281 102.082031 179.832031 101.675781 C 181.171875 101.269531 182.488281 100.800781 183.78125 100.265625 C 185.078125 99.730469 186.34375 99.132812 187.578125 98.472656 C 188.8125 97.816406 190.011719 97.097656 191.179688 96.320312 C 192.34375 95.542969 193.46875 94.710938 194.550781 93.824219 C 195.632812 92.9375 196.667969 91.996094 197.660156 91.007812 C 198.652344 90.019531 199.589844 88.984375 200.480469 87.902344 C 201.367188 86.820312 202.203125 85.699219 202.980469 84.535156 C 203.757812 83.371094 204.480469 82.175781 205.140625 80.941406 C 205.800781 79.707031 206.398438 78.445312 206.933594 77.152344 C 207.472656 75.859375 207.941406 74.542969 208.351562 73.203125 C 208.757812 71.867188 209.097656 70.507812 209.371094 69.136719 C 209.644531 67.765625 209.851562 66.382812 209.988281 64.992188 C 210.125 63.597656 210.195312 62.203125 210.195312 60.804688 C 210.195312 59.402344 210.125 58.007812 209.988281 56.617188 C 209.851562 55.222656 209.648438 53.839844 209.375 52.46875 C 209.101562 51.097656 208.761719 49.742188 208.355469 48.402344 C 207.949219 47.0625 207.476562 45.746094 206.941406 44.453125 C 206.40625 43.160156 205.808594 41.898438 205.148438 40.664062 C 204.488281 39.429688 203.769531 38.230469 202.992188 37.066406 C 202.210938 35.902344 201.378906 34.78125 200.492188 33.699219 C 199.601562 32.617188 198.664062 31.582031 197.671875 30.59375 C 196.683594 29.601562 195.644531 28.664062 194.5625 27.777344 C 193.480469 26.890625 192.355469 26.054688 191.191406 25.277344 C 190.027344 24.5 188.828125 23.78125 187.59375 23.125 C 186.359375 22.464844 185.09375 21.867188 183.796875 21.332031 C 182.503906 20.792969 181.1875 20.324219 179.847656 19.917969 C 178.507812 19.511719 177.148438 19.171875 175.777344 18.898438 C 174.402344 18.625 173.019531 18.421875 171.625 18.28125 C 170.230469 18.144531 168.832031 18.078125 167.433594 18.078125 C 166.03125 18.078125 164.632812 18.144531 163.238281 18.28125 C 161.847656 18.417969 160.460938 18.625 159.089844 18.898438 C 157.714844 19.167969 156.355469 19.507812 155.015625 19.914062 C 153.675781 20.320312 152.359375 20.792969 151.066406 21.328125 C 149.769531 21.863281 148.507812 22.460938 147.269531 23.121094 C 146.035156 23.777344 144.835938 24.496094 143.671875 25.273438 C 142.503906 26.050781 141.382812 26.882812 140.300781 27.773438 C 139.214844 28.660156 138.179688 29.597656 137.1875 30.585938 C 136.199219 31.574219 135.257812 32.613281 134.371094 33.691406 C 133.480469 34.773438 132.648438 35.898438 131.871094 37.058594 C 131.089844 38.222656 130.371094 39.421875 129.710938 40.65625 C 129.050781 41.890625 128.453125 43.152344 127.917969 44.445312 C 127.382812 45.738281 126.910156 47.054688 126.503906 48.394531 C 126.097656 49.730469 125.757812 51.089844 125.484375 52.460938 C 125.210938 53.832031 125.003906 55.214844 124.867188 56.605469 C 124.730469 58 124.660156 59.394531 124.660156 60.792969 C 124.664062 62.191406 124.734375 63.585938 124.875 64.976562 C 125.015625 66.371094 125.222656 67.75 125.496094 69.121094 C 125.769531 70.492188 126.113281 71.847656 126.519531 73.183594 C 126.925781 74.519531 127.398438 75.835938 127.9375 77.125 C 128.472656 78.417969 129.070312 79.679688 129.730469 80.914062 C 130.394531 82.144531 131.113281 83.34375 131.890625 84.503906 C 132.667969 85.667969 133.5 86.789062 134.390625 87.871094 C 135.277344 88.949219 136.214844 89.984375 137.207031 90.972656 C 138.195312 91.960938 139.230469 92.898438 140.3125 93.789062 C 141.394531 94.675781 142.515625 95.507812 143.679688 96.285156 C 144.84375 97.0625 146.042969 97.78125 147.277344 98.441406 C 148.507812 99.101562 149.773438 99.699219 151.066406 100.234375 C 152.359375 100.773438 153.671875 101.246094 155.011719 101.652344 C 156.351562 102.058594 157.707031 102.402344 159.078125 102.675781 C 160.449219 102.953125 161.832031 103.160156 163.226562 103.296875 C 164.617188 103.4375 166.015625 103.507812 167.414062 103.511719 Z M 167.414062 103.511719 " fill-opacity="0.7765" fill-rule="evenodd"/></svg>